<mxfile host="65bd71144e">
    <diagram id="5nNwI5hkeFZFeHPcTbPQ" name="Page-1">
        <mxGraphModel dx="399" dy="309" grid="1" gridSize="10" guides="1" tooltips="1" connect="1" arrows="1" fold="1" page="1" pageScale="1" pageWidth="827" pageHeight="1169" math="0" shadow="0">
            <root>
                <mxCell id="0"/>
                <mxCell id="1" parent="0"/>
                <mxCell id="8" style="edgeStyle=none;html=1;exitX=1;exitY=0.5;exitDx=0;exitDy=0;entryX=0;entryY=0.5;entryDx=0;entryDy=0;fontColor=#000000;" edge="1" parent="1" source="2" target="4">
                    <mxGeometry relative="1" as="geometry"/>
                </mxCell>
                <mxCell id="2" value="global execution context" style="rounded=1;whiteSpace=wrap;html=1;fillColor=#d0cee2;strokeColor=#56517e;fontColor=#000000;fontStyle=1" vertex="1" parent="1">
                    <mxGeometry x="30" y="150" width="120" height="40" as="geometry"/>
                </mxCell>
                <mxCell id="3" value="global execution context" style="rounded=1;whiteSpace=wrap;html=1;fillColor=#d0cee2;strokeColor=#56517e;fontColor=#000000;fontStyle=1" vertex="1" parent="1">
                    <mxGeometry x="190" y="150" width="120" height="40" as="geometry"/>
                </mxCell>
                <mxCell id="9" style="edgeStyle=none;html=1;exitX=1;exitY=0.5;exitDx=0;exitDy=0;entryX=0;entryY=0.5;entryDx=0;entryDy=0;fontColor=#000000;" edge="1" parent="1" source="4" target="7">
                    <mxGeometry relative="1" as="geometry"/>
                </mxCell>
                <mxCell id="4" value="first Function execution context" style="rounded=1;whiteSpace=wrap;html=1;fillColor=#d0cee2;strokeColor=#56517e;fontColor=#000000;fontStyle=1" vertex="1" parent="1">
                    <mxGeometry x="190" y="100" width="120" height="40" as="geometry"/>
                </mxCell>
                <mxCell id="5" value="global execution context" style="rounded=1;whiteSpace=wrap;html=1;fillColor=#d0cee2;strokeColor=#56517e;fontColor=#000000;fontStyle=1" vertex="1" parent="1">
                    <mxGeometry x="350" y="150" width="120" height="40" as="geometry"/>
                </mxCell>
                <mxCell id="6" value="first Function execution context" style="rounded=1;whiteSpace=wrap;html=1;fillColor=#d0cee2;strokeColor=#56517e;fontColor=#000000;fontStyle=1" vertex="1" parent="1">
                    <mxGeometry x="350" y="100" width="120" height="40" as="geometry"/>
                </mxCell>
                <mxCell id="12" style="edgeStyle=none;html=1;exitX=1;exitY=0.5;exitDx=0;exitDy=0;entryX=0;entryY=0.5;entryDx=0;entryDy=0;fontColor=#000000;" edge="1" parent="1" source="7" target="11">
                    <mxGeometry relative="1" as="geometry"/>
                </mxCell>
                <mxCell id="7" value="second Function execution context" style="rounded=1;whiteSpace=wrap;html=1;fillColor=#d0cee2;strokeColor=#56517e;fontColor=#000000;fontStyle=1" vertex="1" parent="1">
                    <mxGeometry x="350" y="50" width="120" height="40" as="geometry"/>
                </mxCell>
                <mxCell id="10" value="global execution context" style="rounded=1;whiteSpace=wrap;html=1;fillColor=#d0cee2;strokeColor=#56517e;fontColor=#000000;fontStyle=1" vertex="1" parent="1">
                    <mxGeometry x="510" y="150" width="120" height="40" as="geometry"/>
                </mxCell>
                <mxCell id="16" style="edgeStyle=none;html=1;exitX=1;exitY=0.5;exitDx=0;exitDy=0;entryX=0;entryY=0.5;entryDx=0;entryDy=0;fontColor=#000000;" edge="1" parent="1" source="11" target="13">
                    <mxGeometry relative="1" as="geometry"/>
                </mxCell>
                <mxCell id="11" value="first Function execution context" style="rounded=1;whiteSpace=wrap;html=1;fillColor=#d0cee2;strokeColor=#56517e;fontColor=#000000;fontStyle=1" vertex="1" parent="1">
                    <mxGeometry x="510" y="100" width="120" height="40" as="geometry"/>
                </mxCell>
                <mxCell id="13" value="global execution context" style="rounded=1;whiteSpace=wrap;html=1;fillColor=#d0cee2;strokeColor=#56517e;fontColor=#000000;fontStyle=1" vertex="1" parent="1">
                    <mxGeometry x="670" y="150" width="120" height="40" as="geometry"/>
                </mxCell>
            </root>
        </mxGraphModel>
    </diagram>
</mxfile>